<?xml version="1.0" standalone="no"?>
<!DOCTYPE svg PUBLIC "-//W3C//DTD SVG 20010904//EN"
 "http://www.w3.org/TR/2001/REC-SVG-20010904/DTD/svg10.dtd">
<svg version="1.0" xmlns="http://www.w3.org/2000/svg" width="1280.000000pt" height="1280.000000pt" viewBox="0 0 1280.000000 1280.000000" preserveAspectRatio="xMidYMid meet">
<g transform="translate(0.000000,1280.000000) scale(0.100000,-0.100000)"
fill="#fff" stroke="none">
<path d="M9048 9375 c-1 -1 -44 -5 -94 -9 -87 -5 -207 -27 -249 -45 -80 -34
-165 -78 -190 -98 -16 -12 -41 -32 -55 -42 -63 -48 -98 -80 -171 -155 -95 -99
-110 -116 -229 -266 -28 -36 -56 -72 -63 -80 -7 -8 -23 -31 -37 -50 -13 -19
-27 -37 -30 -40 -22 -20 -250 -375 -250 -391 0 -5 -4 -9 -8 -9 -5 0 -17 -19
-28 -41 -10 -23 -23 -47 -29 -53 -5 -6 -21 -33 -35 -61 -14 -27 -27 -52 -30
-55 -15 -14 -260 -509 -260 -526 0 -2 -12 -29 -26 -61 -14 -32 -30 -67 -34
-78 -5 -11 -23 -52 -39 -92 -17 -39 -31 -75 -31 -79 0 -4 -16 -48 -36 -98 -29
-73 -74 -201 -79 -226 0 -3 -15 -48 -32 -100 -27 -79 -73 -237 -89 -300 -2 -8
-11 -44 -19 -80 -25 -100 -23 -91 -40 -170 -63 -293 -89 -532 -89 -805 0 -163
7 -316 19 -402 10 -78 36 -231 45 -263 5 -19 14 -57 20 -85 7 -27 14 -57 17
-65 2 -8 4 -16 4 -17 0 -2 8 -23 19 -48 11 -25 20 -49 21 -53 17 -72 160 -341
199 -372 3 -3 17 -20 30 -39 24 -35 129 -143 190 -196 166 -144 499 -302 676
-320 134 -14 512 -8 602 10 11 2 35 6 53 9 28 5 82 19 154 40 36 11 132 55
320 147 144 71 191 96 319 171 21 13 47 27 57 33 11 5 19 13 19 17 0 5 5 8 10
8 9 0 52 28 235 154 31 22 142 104 160 118 6 5 48 38 95 74 47 36 94 73 105
82 11 10 54 45 95 78 41 32 81 66 90 74 9 8 38 33 65 55 26 22 60 51 75 65 15
14 55 50 91 80 35 30 66 57 69 60 3 3 45 41 94 85 49 44 102 91 116 105 15 14
67 62 116 107 49 44 116 107 149 138 33 31 130 123 215 203 193 183 689 678
753 752 26 30 56 64 66 75 40 46 100 132 111 159 25 66 -24 88 -89 39 -49 -36
-185 -154 -276 -238 -125 -117 -264 -246 -300 -280 -83 -79 -261 -244 -285
-265 -14 -12 -45 -40 -70 -63 -65 -60 -135 -123 -214 -192 -37 -33 -78 -69
-91 -80 -12 -11 -48 -42 -80 -70 -32 -27 -67 -58 -79 -68 -19 -17 -74 -63
-130 -110 -40 -33 -99 -82 -135 -113 -20 -17 -70 -57 -111 -90 -41 -32 -77
-61 -80 -64 -3 -3 -43 -35 -90 -70 -47 -36 -87 -67 -90 -70 -9 -9 -244 -183
-304 -225 -32 -22 -63 -45 -69 -50 -12 -11 -239 -163 -269 -180 -9 -5 -70 -42
-135 -81 -127 -77 -304 -173 -393 -214 -30 -14 -58 -29 -62 -35 -4 -5 -8 -7
-8 -3 0 4 -29 -6 -65 -22 -59 -26 -235 -87 -278 -95 -10 -3 -27 -7 -37 -10
-10 -3 -31 -8 -46 -10 -16 -2 -49 -7 -74 -11 -216 -35 -410 42 -530 211 -31
44 -92 150 -89 157 0 2 -5 17 -11 33 -14 37 -60 205 -58 214 1 3 -2 22 -6 41
-4 19 -9 55 -13 80 -6 53 -12 572 -6 583 2 4 6 46 9 95 5 92 7 117 18 198 4
28 9 68 11 90 4 37 6 51 22 134 3 19 7 47 9 62 1 15 7 51 14 81 6 29 13 67 16
83 3 16 9 45 14 64 5 19 12 49 14 65 8 43 27 121 80 325 10 37 58 208 67 235
73 236 206 612 255 725 18 40 19 44 69 165 20 50 57 131 81 182 24 51 44 97
44 103 0 5 3 10 8 10 4 0 23 33 42 73 19 39 37 74 40 77 3 3 16 25 29 50 13
25 28 50 33 57 5 7 17 27 27 45 109 208 457 742 536 823 25 27 77 65 87 65 4
0 14 -13 23 -30 9 -16 13 -30 9 -30 -4 0 -2 -6 4 -12 5 -7 15 -47 22 -88 7
-41 14 -84 17 -95 12 -55 27 -232 26 -315 0 -49 -12 -220 -18 -260 -8 -60 -16
-118 -19 -150 -4 -35 -14 -96 -23 -135 -3 -11 -5 -27 -5 -35 0 -8 -5 -37 -10
-65 -5 -27 -11 -61 -14 -75 -3 -14 -7 -32 -9 -40 -2 -8 -7 -31 -10 -50 -5 -31
-29 -137 -40 -180 -5 -15 -25 -97 -29 -115 -2 -5 -8 -30 -15 -55 -8 -25 -14
-49 -16 -55 -1 -5 -4 -17 -7 -25 -3 -8 -14 -42 -23 -75 -10 -33 -30 -101 -47
-152 -16 -50 -31 -101 -33 -112 -3 -12 -7 -31 -10 -43 -19 -80 -23 -129 -12
-154 5 -11 33 -35 62 -51 73 -43 131 -41 179 6 40 39 77 104 111 197 14 38 30
78 35 89 10 24 43 124 46 143 1 8 6 21 10 30 4 9 8 22 9 28 2 6 16 56 33 110
27 90 40 136 42 156 0 4 7 26 15 48 8 22 12 40 10 40 -3 0 0 11 5 25 5 14 12
36 14 48 2 12 9 42 15 67 11 43 16 64 25 113 3 12 8 33 11 47 3 14 7 36 10 50
3 14 7 36 10 50 3 14 8 41 11 60 3 19 7 42 9 50 2 8 7 31 10 50 3 19 10 60 15
90 5 30 12 75 15 100 3 25 8 57 10 71 3 14 7 41 9 60 2 19 7 59 11 89 4 30 9
71 10 90 2 19 6 76 11 125 16 200 8 460 -18 560 -21 82 -75 148 -155 191 -21
11 -47 25 -58 31 -21 12 -78 35 -82 34 -2 0 -21 6 -43 14 -52 18 -149 36 -225
41 -33 3 -65 6 -72 8 -6 3 -13 3 -15 1z"/>
<path d="M3849 9319 c-35 -17 -115 -90 -196 -181 -38 -41 -193 -261 -193 -272
0 -2 -24 -46 -53 -98 -92 -160 -248 -461 -246 -474 0 -4 -3 -10 -8 -13 -11 -8
-193 -374 -193 -388 0 -6 -3 -13 -7 -15 -9 -4 -113 -214 -113 -228 0 -6 -5
-10 -10 -10 -6 0 -9 -3 -8 -7 1 -5 -30 -73 -69 -153 -39 -80 -113 -233 -166
-340 -91 -187 -153 -316 -312 -645 -40 -82 -105 -217 -145 -300 -40 -82 -99
-204 -130 -270 -144 -301 -182 -379 -246 -510 -37 -77 -68 -142 -69 -145 0 -3
-26 -58 -57 -123 -32 -64 -59 -121 -60 -125 -3 -7 -246 -491 -308 -612 -19
-36 -42 -77 -53 -92 -10 -16 -15 -28 -10 -28 4 0 3 -4 -2 -8 -6 -4 -23 -27
-37 -52 -14 -25 -35 -53 -46 -63 -20 -18 -21 -18 -32 2 -29 55 -31 387 -5 631
6 48 9 85 20 188 4 35 8 73 11 85 2 12 7 42 10 67 8 67 22 152 40 250 2 14 7
41 10 60 11 70 17 104 29 160 3 14 7 36 10 50 14 73 41 190 72 310 19 74 36
140 37 145 2 6 13 44 25 85 13 41 24 80 26 85 1 6 4 17 7 25 3 8 36 106 72
218 37 112 94 274 127 360 33 86 62 164 64 172 2 8 13 38 25 65 25 59 27 64
75 180 21 50 48 114 61 143 13 29 35 80 49 113 54 127 321 677 335 689 3 3 12
21 20 40 8 19 17 37 20 40 3 3 27 43 52 90 25 47 55 101 67 120 11 19 25 44
30 55 5 11 45 78 90 148 45 71 81 132 81 137 0 4 -28 34 -63 67 -56 52 -166
117 -215 127 -10 2 -24 6 -32 9 -25 9 -70 20 -155 36 -49 9 -225 9 -255 -1
-39 -13 -59 -24 -110 -62 -57 -41 -121 -104 -162 -157 -13 -17 -28 -36 -33
-42 -54 -62 -235 -344 -235 -366 0 -6 -4 -11 -10 -11 -5 0 -10 -4 -10 -8 0 -5
-34 -73 -75 -153 -41 -79 -75 -145 -75 -147 1 -1 -13 -33 -31 -70 -17 -37 -42
-94 -56 -127 -13 -33 -33 -78 -44 -101 -10 -22 -19 -44 -19 -48 0 -4 -8 -26
-19 -49 -25 -56 -225 -613 -232 -647 -2 -6 1 2 -39 -125 -18 -55 -33 -104 -34
-110 -2 -5 -9 -30 -16 -55 -7 -25 -14 -50 -16 -56 -1 -6 -10 -38 -19 -70 -10
-33 -19 -66 -20 -74 -2 -8 -4 -15 -5 -15 -1 0 -3 -7 -5 -15 -2 -8 -13 -53 -25
-100 -20 -82 -25 -101 -34 -145 -2 -11 -10 -42 -16 -70 -6 -27 -13 -61 -15
-75 -2 -14 -4 -25 -5 -25 -2 0 -6 -21 -16 -85 -4 -25 -9 -52 -11 -60 -1 -8 -5
-30 -7 -47 -3 -18 -7 -48 -10 -65 -18 -109 -34 -253 -41 -358 -3 -41 -7 -109
-10 -150 -9 -137 -4 -459 9 -610 2 -19 7 -71 11 -115 4 -44 9 -89 11 -100 2
-11 7 -40 10 -65 38 -294 166 -586 324 -738 143 -139 398 -201 468 -113 19 25
132 227 182 327 25 49 48 91 53 92 4 2 7 8 7 13 0 5 44 100 99 212 54 111 137
288 186 392 48 105 91 197 96 205 5 8 14 26 19 40 10 23 39 86 126 275 17 39
43 96 58 128 14 31 38 83 52 115 87 192 271 580 331 697 46 92 93 165 105 165
10 0 6 -59 -11 -171 -6 -35 -13 -86 -16 -114 -3 -27 -7 -70 -10 -95 -12 -111
-12 -110 -31 -355 -9 -111 -12 -714 -4 -748 4 -19 4 -41 -1 -48 -4 -7 -5 -18
-1 -24 4 -5 8 -26 9 -45 2 -50 13 -125 28 -199 20 -104 79 -220 143 -287 73
-76 136 -109 267 -139 11 -3 31 -7 45 -11 14 -3 112 -8 218 -11 180 -5 194 -4
207 13 7 10 11 22 9 25 -2 4 3 12 11 19 8 7 15 16 15 20 0 5 23 46 50 93 28
47 50 90 50 96 0 6 5 11 10 11 6 0 10 5 10 10 0 6 11 27 23 48 43 67 54 87 56
97 2 6 8 16 13 23 6 7 21 32 33 55 12 23 36 68 53 100 38 68 186 361 201 397
6 14 15 32 21 40 5 8 37 74 71 145 61 131 174 356 247 495 22 41 60 113 84
160 60 115 133 252 172 325 18 33 56 105 85 160 95 178 133 249 173 318 21 38
38 73 38 78 0 5 5 9 10 9 6 0 10 5 10 10 0 6 17 39 38 73 21 35 41 70 45 77 4
8 21 35 37 60 16 25 46 74 67 108 45 76 44 75 156 249 48 76 93 147 100 158 7
11 15 22 18 25 3 3 8 12 12 20 8 18 192 298 212 323 8 9 15 21 15 26 0 5 3 11
8 13 7 3 103 144 111 163 2 5 9 15 15 21 6 6 38 51 71 100 33 49 62 91 65 94
3 3 21 27 40 53 83 116 260 316 260 295 0 -6 -37 -77 -103 -198 -105 -193
-137 -253 -142 -270 -1 -3 -22 -49 -48 -103 -26 -55 -47 -101 -47 -103 0 -2
-11 -27 -24 -56 -51 -114 -66 -151 -66 -164 0 -8 -5 -14 -10 -14 -6 0 -9 -3
-8 -7 1 -5 -17 -57 -41 -118 -45 -115 -132 -353 -135 -370 -1 -5 -7 -23 -13
-40 -22 -59 -26 -70 -28 -80 -2 -5 -19 -59 -38 -120 -95 -290 -251 -867 -239
-879 3 -3 0 -6 -7 -6 -7 0 -10 -3 -8 -8 3 -4 -6 -54 -19 -112 -13 -58 -27
-121 -30 -140 -3 -19 -8 -44 -11 -55 -3 -11 -7 -29 -8 -41 -2 -11 -8 -47 -15
-79 -7 -32 -13 -68 -15 -79 -1 -12 -7 -48 -14 -81 -6 -33 -13 -80 -16 -105 -3
-25 -8 -59 -11 -77 -3 -17 -7 -49 -9 -70 -2 -21 -4 -38 -5 -38 -1 0 -3 -20 -6
-45 -2 -25 -6 -61 -9 -80 -10 -60 -14 -503 -5 -550 4 -25 10 -70 13 -100 3
-30 8 -62 11 -70 3 -8 7 -31 10 -50 5 -34 10 -54 22 -102 3 -13 7 -32 9 -43 3
-11 16 -54 29 -95 128 -396 360 -660 611 -694 28 -3 61 -8 75 -11 142 -26 185
-2 149 83 -19 44 -74 226 -82 272 -3 14 -8 36 -11 50 -3 14 -8 41 -11 60 -2
19 -7 46 -9 60 -16 91 -20 147 -20 320 0 107 3 229 8 270 4 41 9 91 12 110 2
19 6 58 8 85 7 66 26 224 32 255 2 14 11 70 19 125 8 55 17 111 20 125 3 14 7
36 9 50 4 28 23 142 31 180 3 14 7 36 10 50 12 65 44 220 50 245 3 11 12 52
21 90 22 97 21 95 33 145 7 25 13 52 15 60 2 8 9 35 16 60 7 25 13 52 15 60
18 88 145 513 220 735 69 206 76 224 92 262 7 17 13 36 13 42 0 6 4 19 9 29 6
9 39 94 75 187 35 94 85 220 111 280 25 61 48 115 49 120 5 16 66 159 91 210
20 42 212 458 286 624 11 24 29 67 40 95 11 28 27 65 34 81 21 46 55 164 55
190 0 54 -84 112 -225 155 -61 19 -111 31 -225 56 -23 5 -94 13 -165 18 -16 2
-48 -1 -70 -7 -22 -5 -48 -10 -58 -12 -38 -8 -171 -80 -245 -133 -185 -131
-420 -369 -636 -642 -37 -47 -75 -94 -84 -105 -10 -11 -29 -36 -42 -55 -13
-19 -27 -37 -30 -40 -3 -3 -17 -21 -30 -40 -13 -19 -30 -41 -37 -48 -7 -7 -13
-17 -13 -21 0 -5 -10 -19 -22 -33 -23 -25 -55 -70 -132 -183 -22 -33 -43 -62
-46 -65 -6 -5 -259 -393 -275 -422 -5 -10 -55 -91 -110 -180 -55 -89 -102
-167 -105 -173 -9 -20 -123 -210 -141 -237 -11 -15 -19 -30 -19 -33 0 -4 -17
-37 -39 -73 -21 -37 -47 -83 -58 -102 -11 -19 -47 -85 -81 -146 -34 -61 -62
-116 -62 -122 0 -7 -5 -12 -11 -12 -5 0 -8 -4 -5 -9 4 -5 2 -11 -2 -13 -8 -3
-49 -79 -187 -343 -32 -60 -61 -114 -66 -120 -5 -5 -9 -17 -9 -26 0 -10 -3
-19 -7 -21 -14 -6 -267 -521 -505 -1028 -22 -47 -54 -114 -71 -150 -17 -36
-31 -67 -32 -70 -1 -3 -16 -36 -34 -75 -18 -38 -39 -88 -48 -110 -27 -73 -36
-85 -58 -85 -29 0 -41 15 -52 71 -12 58 -7 220 12 339 3 19 7 49 9 65 7 51 16
109 22 135 3 14 8 39 10 57 2 18 11 64 19 102 18 89 27 131 30 156 2 11 4 20
5 20 1 0 3 10 6 23 2 12 13 64 25 115 11 51 22 101 24 112 4 17 13 56 21 88 1
4 2 8 4 10 1 1 3 10 5 21 2 10 9 40 15 66 6 26 13 54 14 61 2 8 6 21 9 29 3 8
13 47 22 85 9 39 21 86 26 105 5 19 11 42 13 50 2 8 9 35 16 60 7 25 13 52 15
60 2 8 15 58 30 110 15 52 33 118 40 145 7 28 27 100 45 160 17 61 33 118 35
128 2 9 7 22 10 27 3 5 8 18 10 27 7 34 118 404 156 518 13 39 24 72 24 75 1
3 12 39 25 80 13 41 24 77 25 80 3 15 128 388 135 405 5 11 19 52 31 90 12 39
24 75 28 80 3 6 6 15 7 20 1 6 30 89 64 185 60 172 198 581 205 610 55 214 54
245 -2 295 -33 29 -120 72 -184 91 -73 22 -187 23 -230 3z"/>
</g>
</svg>
