<svg width="80" height="38" viewBox="0 0 80 38" fill="none" xmlns="http://www.w3.org/2000/svg">
<g clip-path="url(#clip0)">
<path d="M37.3413 5.1243L37.9907 4.47489L37.4495 5.55724C34.4189 10.6443 31.2801 21.0349 30.8471 27.529C30.5224 32.2914 32.3624 36.6208 34.9601 37.2702C35.2848 37.3784 35.826 37.3784 36.2589 37.4866C36.6918 37.4866 36.9083 37.3784 36.6918 36.9455C36.0424 35.2137 35.7177 33.1572 35.826 31.3172C36.4754 22.9831 38.8565 14.649 42.9695 6.09842C44.1601 3.50077 44.593 2.41842 44.3765 2.09371C44.0518 1.55253 42.1036 1.01136 40.5883 0.903122C37.0165 0.903122 29.9813 10.4278 22.946 24.7149C21.2142 28.2866 19.8071 31.3172 19.8071 31.4255C19.8071 31.6419 19.6989 31.7502 19.4824 31.7502C18.1836 31.7502 20.8895 19.9525 24.786 8.69606C27.1671 1.87724 27.1671 1.769 26.626 1.33606C26.4095 1.11959 25.7601 0.794887 25.1107 0.686651C24.0283 0.578411 23.9201 0.686651 22.8377 1.87724C21.5389 3.39253 20.7813 4.69135 9.41656 28.3949C8.11773 30.9925 7.03538 33.1572 6.81891 33.049C6.38597 32.7243 6.60244 28.5031 7.25185 25.1478C8.11773 19.4114 11.3648 11.0772 15.153 4.69136L15.9107 3.50077L15.2613 2.85135C14.3954 2.20195 12.4471 1.769 11.473 1.98547C9.95773 2.31018 7.68479 5.77371 5.73656 10.7525C3.13891 17.6796 2.05656 22.5502 2.27303 27.8537C2.4895 31.5337 2.92244 33.1572 4.22126 34.889C4.97891 35.8631 6.60244 36.5125 7.36009 36.0796C7.68479 35.8631 9.41656 32.5078 11.5813 27.7455C15.586 18.9784 15.9107 18.4372 15.6942 19.9525C15.0448 24.0655 15.0448 29.4772 15.586 30.9925C16.1271 32.6161 17.1013 33.2655 19.266 33.3737H20.8895L21.8636 31.6419C22.513 30.6678 24.1366 27.529 25.5436 24.4984C27.0589 21.5761 29.0071 17.8961 29.9813 16.1643C32.2542 12.2678 36.3671 6.09841 37.3413 5.1243ZM76.3163 18.5455C76.0998 18.5455 74.801 19.7361 73.2857 21.1431C64.3022 29.6937 57.1587 34.889 52.6128 35.6466C49.474 36.1878 47.7422 33.6984 47.9587 28.5031C47.9587 23.7408 49.6904 17.3549 52.1798 11.8349C53.4787 9.129 56.2928 4.69136 57.0504 3.93371C57.5916 3.50077 57.5916 3.50077 57.8081 4.25842C58.241 6.42312 58.241 7.39724 57.9163 9.67018C57.5916 12.0514 57.1587 13.8914 56.2928 16.5972C55.8598 18.1125 55.8598 18.329 56.2928 18.5455C57.2669 19.1949 57.8081 18.7619 58.5657 16.3808C60.4057 11.0772 61.3798 3.2843 60.4057 1.87724C59.7563 0.903122 57.5916 0.253708 55.8598 0.470179C53.9116 0.578411 52.5045 1.55253 50.4481 4.15018C45.7938 9.99489 42.3302 19.1949 42.3302 25.3643C42.3302 30.9925 44.062 34.5643 47.9587 36.4043C49.5822 37.1619 50.0151 37.1619 52.1798 37.1619C54.3445 37.0537 54.8857 36.9455 56.834 35.9714C60.8387 34.1314 65.1681 30.5596 72.4198 23.5243C76.3163 19.7361 77.1822 18.5455 76.3163 18.5455Z" fill="white"/>
</g>
<defs>
<clipPath id="clip0">
<rect width="80" height="37.6471" fill="white"/>
</clipPath>
</defs>
</svg>
